<svg xmlns="http://www.w3.org/2000/svg" width="1760.205" height="376.682" viewBox="0 0 1760.205 376.682">
  <g id="Group_13" data-name="Group 13" transform="translate(-658.226 -511.449)">
    <path id="Path_1" data-name="Path 1" d="M84.51,454.85h48.807V680.416H84.51Zm72.5,98.88c0-14.4,0-30.128-.317-42.686h45.377a189.944,189.944,0,0,1,1.794,21.58c5.751-10.553,19.47-25.485,49.123-25.485,34.033,0,56.141,23.005,56.141,65.533V680.416H262.219V577.9c0-19.048-6.332-32.819-27.015-32.819s-31.342,11.08-31.342,40.945v94.394H157.008Zm159.611,76.033h46.01c3.588,13.508,14.563,21.106,32.08,21.106s23.586-6.226,23.586-16.515-7.281-15.143-31.658-21.106c-55.191-13.613-64.214-30.709-64.214-54.611,0-24.852,17.623-51.286,68.593-51.286s68.593,28.071,70.176,50.97H416.87c-1.477-6.226-5.646-18.045-27.7-18.045-15.513,0-20.525,6.859-20.525,14.457,0,8.442,5.276,12.505,32.766,18.943,56.457,13.138,64.478,32.5,64.478,57.3,0,28.071-21.106,53.608-72.973,53.608S320.312,659.522,316.619,629.763Zm206.993,35.932v79.621H477.021V551.883c0-13.719,0-27.226-.317-40.839h45.377a196.527,196.527,0,0,1,1.53,21.105c7.229-12.4,22.372-25.01,49.229-25.01,37.99,0,67.432,31.658,67.432,84.422,0,59.729-32.872,92.865-73.87,92.865-23.9-.053-36.091-9.075-42.792-18.995Zm69.068-72.128c0-31.025-12.558-48.543-34.877-48.543-26.382,0-36.038,17.043-36.038,51.181,0,32.345,8.706,51.129,34.033,51.129S592.68,627.81,592.68,593.3Z" transform="translate(581.683 72.85)" fill="#00244c"/>
    <path id="Path_2" data-name="Path 2" d="M259.78,508.972h5.276v8.389H259.78Zm5.276,18.995v41H259.78V527.809Zm12.927,10.553V527.967h5.276a68.907,68.907,0,0,1,0,7.334,13.244,13.244,0,0,1,13.349-8.284c7.493,0,13.824,4.38,13.824,15.829v26.382h-5.276v-25.8c0-6.806-2.8-11.292-9.55-11.292-8.864,0-12.136,7.123-12.136,15.829V569.07h-5.276Zm46.7,19.259a10.183,10.183,0,0,0,10.975,7.914c6.754,0,9.445-3.06,9.445-7.281s-1.952-6.332-10.553-8.442c-11.133-2.691-13.719-6.068-13.719-11.555s4.327-11.239,14.193-11.239a13.3,13.3,0,0,1,14.88,11.661h-5.277a8.917,8.917,0,0,0-9.709-7.07c-6.543,0-8.442,3.166-8.442,6.173s1.847,5.276,9.709,7.071c12.03,2.9,14.721,6.859,14.721,12.98,0,7.387-5.91,12.294-15.3,12.294s-15.2-5.276-16.3-12.505Zm40.787,5.91v21.95H360.19V528.02h5.276v7.018A14.669,14.669,0,0,1,379.5,527.07c9.6,0,16.409,8.074,16.409,20.473,0,14.774-7.915,22.636-17.834,22.636a13.033,13.033,0,0,1-12.4-6.49Zm24.746-15.829c0-9.128-4.327-15.829-11.925-15.829-9.339,0-13.086,5.857-13.086,16.515s3.008,16.832,12.505,16.832c8.284-.106,12.716-6.965,12.716-17.518Zm15.829-38.729h5.276v8.389h-5.276Zm5.276,19v40.839h-5.276V527.809Zm13.191,40.839V527.809h5.276v8.864a15.09,15.09,0,0,1,14.141-9.814V532.5a14.036,14.036,0,0,0-14.141,15.829v20.631Zm55.508-8.337a50.932,50.932,0,0,0,.58,8.337h-5.276a22.946,22.946,0,0,1-.739-5.857,13.244,13.244,0,0,1-13.138,6.86,12.347,12.347,0,0,1-13.771-12.453c0-9.128,7.123-13.244,19.417-13.244h7.44v-3.9c0-3.9-1.161-8.917-9.814-8.917-7.651,0-8.864,3.9-9.656,7.229h-5.276c.475-5.276,3.641-11.819,15.2-11.819,9.709,0,15.09,4.01,15.09,13.191Zm-5.276-12.188H467.3c-8.706,0-13.824,2.322-13.824,8.811a8.02,8.02,0,0,0,8.812,8.126c10.922,0,12.452-7.282,12.452-15.829Zm12.03-20.631h7.44V515.3h5.276v12.505h9.445v4.749h-9.445v25.854c0,4.327.95,6.7,4.8,6.7a17.4,17.4,0,0,0,3.957-.422v4.274a15.84,15.84,0,0,1-5.593.739c-5.751,0-8.654-2.9-8.654-9.6V532.716h-7.229Zm30.339-18.995h5.276V517.2H517.11Zm5.276,18.995v41.156H517.11V527.809Zm47.171,20.525c0,11.608-6.543,21.633-18.942,21.633-11.45,0-18.467-9.128-18.467-21.528s6.754-21.581,18.889-21.581c11.344.158,18.731,8.706,18.731,21.634Zm-31.658,0c0,9.445,4.96,16.779,13.033,16.779s12.98-6.859,12.98-16.726-4.485-16.357-12.769-16.357-13.086,6.859-13.086,16.515Zm41.472-10.183V527.6h5.276c0,1.266.264,6.173,0,7.334A13.244,13.244,0,0,1,598,526.648c7.493,0,13.771,4.379,13.771,15.829v26.382h-5.276v-25.8c0-6.806-2.744-11.292-9.5-11.292-8.864,0-12.136,7.123-12.136,15.829V568.7h-5.276ZM640.1,527.6h7.387V515.093h5.276V527.6h9.445v4.749h-9.445v26.065c0,4.327.95,6.7,4.8,6.7a17.884,17.884,0,0,0,4.01-.422v4.274a16.157,16.157,0,0,1-5.593.739c-5.8,0-8.706-2.9-8.706-9.6V532.716h-7.387Zm64.161,20.525c0,11.608-6.543,21.633-18.942,21.633-11.45,0-18.467-9.128-18.467-21.528s6.754-21.581,18.89-21.581c11.344.369,18.678,8.917,18.678,21.844Zm-31.658,0c0,9.445,4.907,16.779,13.033,16.779s13.244-6.49,13.244-16.3-4.59-16.779-13.085-16.779-13.033,7.07-13.033,16.726Zm62.42-39.573H740.3v8.389h-5.276Zm5.276,18.995v41.419h-5.276V527.809ZM753.229,538.1V527.545H758.5a68.751,68.751,0,0,1,0,7.334,13.245,13.245,0,0,1,13.349-8.284c7.493,0,13.824,4.38,13.824,15.829v26.382H780.4V543c0-6.806-2.8-11.292-9.55-11.292-8.864,0-12.136,7.123-12.136,15.829v21.106H753.44Zm45.483,0V527.545h5.276a57.272,57.272,0,0,1,0,7.334,13.244,13.244,0,0,1,13.349-8.283c7.545,0,13.824,4.379,13.824,15.829v26.382h-5.276V543c0-6.806-2.744-11.292-9.55-11.292-8.864,0-12.136,7.123-12.136,15.829v21.106h-5.276Zm79.726,10.131c0,11.608-6.543,21.633-18.942,21.633-11.45,0-18.467-9.128-18.467-21.528s6.754-21.581,18.889-21.581c11.5.264,18.89,8.812,18.89,21.739Zm-31.658,0c0,9.444,4.96,16.779,13.033,16.779S873,558.412,873,548.6s-4.643-16.779-13.138-16.779-12.769,7.07-12.769,16.726ZM888.99,527.65c6.121,17.94,10.553,30.656,11.925,35.88h0c.95-3.746,5.276-15.829,12.611-35.88h5.7l-14.563,41.314h-6.279l-14.51-41.156Zm66.43,32.819a60.327,60.327,0,0,0,.528,8.337h-5.276a23.8,23.8,0,0,1-.686-5.857,13.3,13.3,0,0,1-13.191,6.86,12.294,12.294,0,0,1-13.719-12.453c0-9.128,7.07-13.244,19.365-13.244h7.493v-3.9c0-3.9-1.214-8.917-9.814-8.917-7.651,0-8.864,3.9-9.708,7.229h-5.276c.528-5.276,3.641-11.819,15.2-11.819,9.708,0,15.143,4.01,15.143,13.191Zm-5.276-12.188H942.7c-8.706,0-13.771,2.322-13.771,8.812a7.968,7.968,0,0,0,8.812,8.125c10.922,0,12.4-7.281,12.4-15.829Zm12.083-20.631h7.387v-12.5h5.276v12.5h9.5V532.4h-9.5v26.013c0,4.327,1,6.7,4.854,6.7a17.725,17.725,0,0,0,3.957-.422v4.274a16.156,16.156,0,0,1-5.593.739c-5.8,0-8.706-2.9-8.706-9.6V532.716h-6.7Zm30.339-18.995h5.276v8.389h-5.276Zm5.276,18.995v41.314h-5.276V527.809Zm47.118,20.526c0,11.608-6.543,21.633-18.942,21.633-11.4,0-18.415-9.128-18.415-21.528s6.7-21.581,18.837-21.581c11.766.317,19.1,8.865,19.1,21.792Zm-31.658,0c0,9.444,4.907,16.779,13.033,16.779s12.927-6.859,12.927-16.726-4.59-16.779-13.085-16.779-12.294,7.439-12.294,17.1Zm41.472-10.184V527.439h5.276a68.882,68.882,0,0,1,0,7.334,13.244,13.244,0,0,1,13.349-8.284c7.545,0,13.824,4.38,13.824,15.829V568.7h-5.276V542.9c0-6.807-2.8-11.292-9.55-11.292-8.864,0-12.136,7.123-12.136,15.829v21.106h-5.276Z" transform="translate(1331.207 302.493)" fill="#71bf45"/>
    <path id="Path_3" data-name="Path 3" d="M207.667,567.692c0-16.832,0-31.658-.317-45.957h45.957c.633,3.8,1.266,20.631,1.266,29.759,7.44-19.364,25.538-33.505,54.294-33.663v44.744c-33.98-.9-54.294,8.284-54.294,54.716v73.87H207.667ZM471.487,606.1c0,51.234-30.656,88.96-84.422,88.96-52.5,0-83.156-37.515-83.156-88.063,0-52.236,31.658-89.171,85.372-89.171,50.126,0,82.364,35.194,82.364,88.274Zm-119.88.317c0,32.608,14.035,51.92,36.618,51.92s35.721-19.312,35.721-51.6c0-35.457-13.033-52.236-36.354-52.236-21.581,0-35.827,16.146-35.827,51.92ZM484.414,564.21c0-14.4,0-30.128-.317-42.686h45.377a202.692,202.692,0,0,1,1.794,21.58c5.751-10.552,19.47-25.485,49.123-25.485,34.033,0,56.088,23,56.088,65.533V691.107H589.625V588.587c0-19.048-6.332-32.819-27.015-32.819s-31.342,11.08-31.342,40.945v94.395H484.414Zm176.232-98.88H709.4V651.006H821.734l-5.54,40H660.8ZM971,647.155a390.171,390.171,0,0,0,2.269,43.741H928.528a67.065,67.065,0,0,1-2.374-16.568c-6.174,9.55-17.676,20.525-47.488,20.525-40.839,0-58.04-26.857-58.04-53.133,0-38.57,30.973-56.4,80.623-56.4h24.166V574.763c0-12.03-4.327-23.849-26.065-23.849-19.786,0-24.113,8.389-26.382,20.631H828.382c2.533-30.075,21.106-54.4,72.656-54.136,45.324.264,70.018,17.993,70.018,58.3Zm-45.535-33.083h-19.1c-28.229,0-38.729,8.6-38.729,24.957,0,12.241,7.545,22.583,24.377,22.583,29.812,0,33.452-20.736,33.452-43.108ZM994.061,452.35h46.907v87.43c6.965-10.869,21.106-21.9,48.438-21.9,46.063,0,69.068,38.1,69.068,85.583,0,48.543-24.957,91.651-73.87,91.651-25.168,0-36.3-7.7-44.48-20a79.135,79.135,0,0,1-1.847,15.829h-44.8c.316-18.362.316-36.935.316-55.349ZM1110.88,604.363c0-28.229-10.553-48.912-35.774-48.912-26.8,0-36.3,17.412-36.3,51.92,0,28.545,8.442,50.442,35.774,50.442,23.744-.053,36.249-21.475,36.249-53.5Zm96.03,35.879c3.536,13.508,14.563,21.106,32.028,21.106s23.639-6.226,23.639-16.515-7.282-15.143-31.658-21.106c-55.139-13.613-64.161-30.708-64.161-54.611,0-24.852,17.57-51.286,68.593-51.286s68.593,28.07,70.229,50.97h-44.585c-1.53-6.226-5.7-18.045-27.7-18.045-15.513,0-20.525,6.859-20.525,14.458,0,8.442,5.276,12.5,32.714,18.942,56.51,13.138,64.53,32.5,64.53,57.3,0,28.07-21.369,53.608-72.972,53.608s-72.6-24.852-76.349-54.874Z" transform="translate(1106.996 62.159)" fill="#00244c"/>
    <path id="Path_4" data-name="Path 4" d="M557.876,537.971v-5.856h68.593v5.856Zm68.593-17.57H83l15.829-17.57H642.3Z" transform="translate(575.226 278.032)" fill="#71bf45"/>
    <path id="Path_5" data-name="Path 5" d="M191.5,617.367l47.488,17.57L260.093,465.09H212.606Z" transform="translate(1039.215 116.64)" fill="#00244c"/>
    <ellipse id="Ellipse_1" data-name="Ellipse 1" cx="29.02" cy="29.284" rx="29.02" ry="29.284" transform="translate(1249.182 511.449)" fill="#71bf45"/>
  </g>
</svg>
